<svg id="freepik_stories-mobile-inbox" xmlns="http://www.w3.org/2000/svg" viewBox="0 0 500 500" version="1.1" xmlns:xlink="http://www.w3.org/1999/xlink" xmlns:svgjs="http://svgjs.com/svgjs" class="animated" data-v-3550869a="">
   <style data-v-3550869a="">svg#freepik_stories-mobile-inbox:not(.animated) .animable {opacity: 0;}svg#freepik_stories-mobile-inbox.animated #freepik--Device--inject-2 {animation: 1.5s Infinite  linear floating;animation-delay: 0s;}            @keyframes floating {                0% {                    opacity: 1;                    transform: translateY(0px);                }                50% {                    transform: translateY(-10px);                }                100% {                    opacity: 1;                    transform: translateY(0px);                }            }        </style>
   <g id="freepik--Device--inject-2" class="animable" style="transform-origin:218.35px 270.77px 0" data-v-3550869a="">
      <path d="M296.28,470.77l-156,.08a22.75,22.75,0,0,1-22.76-22.73l-.18-351.41a25.92,25.92,0,0,1,25.91-25.94l153.12-.08a23,23,0,0,1,23,23l.19,353.82A23.28,23.28,0,0,1,296.28,470.77Z" id="elq7vmpt2eash" class="animable" style="fill:#455a64;transform-origin:218.45px 270.77px 0" data-v-3550869a=""></path>
      <path d="M120.69,440l-.18-338.39A27.66,27.66,0,0,1,148.16,74l140.34-.08a27.66,27.66,0,0,1,27.68,27.65l.18,338.39a27.66,27.66,0,0,1-27.65,27.68l-140.34.08A27.67,27.67,0,0,1,120.69,440Z" id="elr8b5ztxbuh" class="animable" style="fill:#263238;transform-origin:218.435px 270.82px 0" data-v-3550869a=""></path>
      <path d="M203.83,86.53a2.25,2.25,0,0,1,0-4.5h28.89a2.25,2.25,0,1,1,0,4.49Z" id="elfyf84hjcqqi" class="animable" style="fill:#455a64;transform-origin:218.35px 84.2775px 0" data-v-3550869a=""></path>
      <path d="M188.34,86.54a2.25,2.25,0,1,1,2.24-2.25A2.25,2.25,0,0,1,188.34,86.54Z" id="elh8r6p859q2f" class="animable" style="fill:#455a64;transform-origin:188.33px 84.29px 0" data-v-3550869a=""></path>
      <path d="M196.61,86.53a2.25,2.25,0,1,1,2.24-2.25A2.25,2.25,0,0,1,196.61,86.53Z" id="elnjvqigpxwe" class="animable" style="fill:#455a64;transform-origin:196.6px 84.28px 0" data-v-3550869a=""></path>
      <path d="M248.34,86.5a2.25,2.25,0,1,1,2.25-2.24A2.24,2.24,0,0,1,248.34,86.5Z" id="elsv7dgrk438c" class="animable" style="fill:#455a64;transform-origin:248.34px 84.25px 0" data-v-3550869a=""></path>
      <path d="M240.07,86.51a2.25,2.25,0,1,1,2.25-2.25A2.24,2.24,0,0,1,240.07,86.51Z" id="eltq03bgetbsp" class="animable" style="fill:#455a64;transform-origin:240.07px 84.26px 0" data-v-3550869a=""></path>
      <path d="M290,78.51h-27.2a5.94,5.94,0,0,0-5.7,4.26l-2.22,7.62a6.62,6.62,0,0,1-6.37,4.77l-60.26,0a6.65,6.65,0,0,1-6.38-4.76l-2.23-7.62a5.92,5.92,0,0,0-5.7-4.25H146.72a21.61,21.61,0,0,0-21.65,21.56l.18,340.62a21.6,21.6,0,0,0,21.67,21.53l143.25-.07a21.61,21.61,0,0,0,21.65-21.56L311.64,100A21.6,21.6,0,0,0,290,78.51Z" id="el653wwjur3gl" class="animable" style="fill:#fafafa;transform-origin:218.445px 270.375px 0" data-v-3550869a=""></path>
      <path d="M319.39,157.63h0a1.34,1.34,0,0,1,1.33,1.33l0,43.33a1.33,1.33,0,0,1-1.32,1.33h0Z" id="elm3yw7nveaco" class="animable" style="fill:#455a64;transform-origin:320.055px 180.625px 0" data-v-3550869a=""></path>
      <path d="M117.37,186.08h0a1.37,1.37,0,0,0-1.37,1.37v26.37a1.38,1.38,0,0,0,1.38,1.37h0Z" id="elwdw196lfw09" class="animable" style="fill:#455a64;transform-origin:116.69px 200.635px 0" data-v-3550869a=""></path>
      <path d="M117.35,148h0a1.37,1.37,0,0,0-1.37,1.38v26.36a1.39,1.39,0,0,0,1.38,1.38h0Z" id="eld5zd7opktca" class="animable" style="fill:#455a64;transform-origin:116.67px 162.56px 0" data-v-3550869a=""></path>
      <path d="M117.34,119.49h0a1.19,1.19,0,0,0-1.19,1.19v11.17a1.18,1.18,0,0,0,1.19,1.18h0Z" id="el9hzxoyt6ftn" class="animable" style="fill:#455a64;transform-origin:116.745px 126.26px 0" data-v-3550869a=""></path>
      <rect x="266.33" y="89.6" width="1.39" height="1.95" id="elxjvsm3i10l" class="animable" style="fill:#fff;transform-origin:267.025px 90.575px 0" data-v-3550869a=""></rect>
      <rect x="268.59" y="88.73" width="1.39" height="2.81" id="elky8img8tep" class="animable" style="fill:#fff;transform-origin:269.285px 90.135px 0" data-v-3550869a=""></rect>
      <rect x="270.85" y="88.08" width="1.39" height="3.46" id="elumjdoedusuq" class="animable" style="fill:#fff;transform-origin:271.545px 89.81px 0" data-v-3550869a=""></rect>
      <rect x="273.11" y="86.82" width="1.39" height="4.72" id="el2r3bqt18vyv" class="animable" style="fill:#fff;transform-origin:273.805px 89.18px 0" data-v-3550869a=""></rect>
      <path d="M295,91.63h-7a.49.49,0,0,1-.5-.49V87.67a.5.5,0,0,1,.49-.5h7a.14.14,0,0,1,.13.13v1.14h.75a.12.12,0,0,1,.12.13v1.66a.13.13,0,0,1-.13.13h-.75V91.5A.12.12,0,0,1,295,91.63Zm-.13-4.21H288a.24.24,0,0,0-.24.24v3.47a.24.24,0,0,0,.24.24h6.84V90.23a.12.12,0,0,1,.12-.12h.75V88.69H295a.12.12,0,0,1-.12-.12Z" id="elswvf4xxywh" class="animable" style="fill:#fff;transform-origin:291.745px 89.4001px 0" data-v-3550869a=""></path>
      <polygon points="288.34 90.81 288.34 88 294.29 87.99 294.29 89.26 294.29 89.54 294.29 90.81 288.34 90.81" id="el7bysosur42w" class="animable" style="fill:#fff;transform-origin:291.315px 89.4px 0" data-v-3550869a=""></polygon>
      <path d="M281.14,91.37a.51.51,0,1,0-.51.51A.51.51,0,0,0,281.14,91.37Z" id="ell9ykvbyofsi" class="animable" style="fill:#fff;transform-origin:280.63px 91.37px 0" data-v-3550869a=""></path>
      <path d="M278.89,90.15l.65.64a1.55,1.55,0,0,1,2.18,0l.65-.65a2.48,2.48,0,0,0-1.74-.72A2.45,2.45,0,0,0,278.89,90.15Z" id="elov69wiob1gj" class="animable" style="fill:#fff;transform-origin:280.63px 90.105px 0" data-v-3550869a=""></path>
      <path d="M280.63,88a3.92,3.92,0,0,0-2.76,1.14l.65.65a3,3,0,0,1,4.22,0l.65-.65A3.88,3.88,0,0,0,280.63,88Z" id="el8zo971xr4f" class="animable" style="fill:#fff;transform-origin:280.63px 88.895px 0" data-v-3550869a=""></path>
      <path d="M276.81,88.07l.65.65a4.43,4.43,0,0,1,3.17-1.32,4.5,4.5,0,0,1,3.17,1.31l.65-.65a5.4,5.4,0,0,0-7.64,0Z" id="elk4m6qmlpp0k" class="animable" style="fill:#fff;transform-origin:280.63px 87.5984px 0" data-v-3550869a=""></path>
      <path d="M163.47,173.7a12.89,12.89,0,1,1-12.78-13A12.89,12.89,0,0,1,163.47,173.7Z" id="elpifvk2f3ma" class="animable" style="fill:#29669e;transform-origin:150.58px 173.59px 0" data-v-3550869a=""></path>
      <path d="M227.9,163.77c0,.14-12,.16-26.7,0s-26.71-.33-26.71-.48,12-.16,26.71,0S227.91,163.63,227.9,163.77Z" id="elvlglh4s5ck" class="animable" style="fill:#263238;transform-origin:201.195px 163.528px 0" data-v-3550869a=""></path>
      <path d="M271.49,176c0,.14-21.8.08-48.69-.14s-48.69-.52-48.69-.66,21.8-.08,48.7.14S271.49,175.85,271.49,176Z" id="ely3yie4ummg" class="animable" style="fill:#e0e0e0;transform-origin:222.8px 175.6px 0" data-v-3550869a=""></path>
      <path d="M271.41,185.61c0,.14-21.8.08-48.69-.14S174,185,174,184.81s21.79-.08,48.69.14S271.41,185.46,271.41,185.61Z" id="elpjt2l8q02e9" class="animable" style="fill:#e0e0e0;transform-origin:222.705px 185.199px 0" data-v-3550869a=""></path>
      <path d="M300.15,161.92c0,.15-4.72.22-10.53.18s-10.52-.21-10.52-.35,4.71-.22,10.53-.17S300.15,161.78,300.15,161.92Z" id="el06lsmy47qsoh" class="animable" style="fill:#263238;transform-origin:289.625px 161.838px 0" data-v-3550869a=""></path>
      <path d="M292,175.33l.87,1.8a1.05,1.05,0,0,0,.78.59l2,.3a1,1,0,0,1,.57,1.79l-1.45,1.39a1.07,1.07,0,0,0-.31.93l.33,2a1.06,1.06,0,0,1-1.54,1.1l-1.76-.95a1.06,1.06,0,0,0-1,0l-1.78.92a1,1,0,0,1-1.51-1.12l.35-2a1,1,0,0,0-.29-.93l-1.42-1.41a1.05,1.05,0,0,1,.6-1.79l2-.27a1,1,0,0,0,.79-.57l.9-1.78A1.06,1.06,0,0,1,292,175.33Z" id="elxy3nhflq8o" class="animable" style="fill:#29669e;transform-origin:291.067px 180.068px 0" data-v-3550869a=""></path>
      <path d="M242.16,163.19a2.42,2.42,0,1,1-2.4-2.44A2.42,2.42,0,0,1,242.16,163.19Z" id="el39ctrx4paar" class="animable" style="fill:#29669e;transform-origin:239.74px 163.17px 0" data-v-3550869a=""></path>
      <path d="M310.9,139.84c0,.14-41.65-.08-93-.5s-93-.88-93-1,41.64.08,93,.5S310.91,139.7,310.9,139.84Z" id="elmns8hnk0a8" class="animable" style="fill:#e0e0e0;transform-origin:217.9px 139.094px 0" data-v-3550869a=""></path>
      <path d="M310.36,206.46c0,.15-41.66-.08-93-.5s-93-.88-93-1,41.65.08,93,.5S310.36,206.32,310.36,206.46Z" id="elm8xygozg8ol" class="animable" style="fill:#e0e0e0;transform-origin:217.36px 205.716px 0" data-v-3550869a=""></path>
      <g id="el1xh2f4w66ii" data-v-3550869a="">
         <circle cx="149.49" cy="306.61" r="12.89" id="el14uzvci4ykv" class="animable" style="fill:#29669e;transform-origin:149.49px 306.61px 0;transform:rotate(-45deg)" data-v-3550869a=""></circle>
      </g>
      <path d="M226.81,296.79c0,.14-11.95.16-26.7,0s-26.71-.33-26.71-.48,12-.16,26.71,0S226.82,296.65,226.81,296.79Z" id="elw4xcw68ggnb" class="animable" style="fill:#263238;transform-origin:200.105px 296.548px 0" data-v-3550869a=""></path>
      <path d="M270.4,309c0,.14-21.8.08-48.69-.14s-48.69-.52-48.69-.66,21.8-.08,48.7.14S270.4,308.87,270.4,309Z" id="elfwcoyj3cyr" class="animable" style="fill:#e0e0e0;transform-origin:221.71px 308.6px 0" data-v-3550869a=""></path>
      <path d="M270.32,318.63c0,.14-21.8.08-48.69-.14s-48.69-.52-48.68-.66,21.79-.08,48.69.14S270.32,318.48,270.32,318.63Z" id="eln5yx1rbvfbj" class="animable" style="fill:#e0e0e0;transform-origin:221.635px 318.23px 0" data-v-3550869a=""></path>
      <path d="M299.06,294.94c0,.15-4.71.22-10.53.18s-10.52-.21-10.52-.35,4.71-.22,10.53-.17S299.06,294.8,299.06,294.94Z" id="elqwbjm59di2" class="animable" style="fill:#263238;transform-origin:288.535px 294.858px 0" data-v-3550869a=""></path>
      <path d="M290.9,308.35l.87,1.8a1.05,1.05,0,0,0,.78.59l2,.3a1,1,0,0,1,.57,1.79l-1.45,1.39a1.07,1.07,0,0,0-.31.93l.33,2a1.06,1.06,0,0,1-1.54,1.1l-1.76-1a1.06,1.06,0,0,0-1,0l-1.78.92a1,1,0,0,1-1.51-1.12l.36-2a1,1,0,0,0-.3-.93l-1.42-1.41a1.05,1.05,0,0,1,.6-1.79l2-.27a1,1,0,0,0,.79-.57l.9-1.78A1.06,1.06,0,0,1,290.9,308.35Z" id="el1aybpmvdpv2" class="animable" style="fill:#29669e;transform-origin:289.967px 313.067px 0" data-v-3550869a=""></path>
      <g id="el7aj8zac73gl" data-v-3550869a="">
         <circle cx="238.65" cy="296.19" r="2.42" id="el7kuxbfzguy4" class="animable" style="fill:#29669e;transform-origin:238.65px 296.19px 0;transform:rotate(-78.76deg)" data-v-3550869a=""></circle>
      </g>
      <path d="M309.81,272.86c0,.14-41.65-.08-93-.5s-93-.88-93-1,41.64.08,93,.5S309.82,272.72,309.81,272.86Z" id="elswfc0l8cq1" class="animable" style="fill:#e0e0e0;transform-origin:216.81px 272.114px 0" data-v-3550869a=""></path>
      <path d="M309.27,339.48c0,.15-41-.12-91.59-.6s-91.59-1-91.59-1.12,41,.12,91.6.6S309.27,339.34,309.27,339.48Z" id="elz2dwpt48rcq" class="animable" style="fill:#e0e0e0;transform-origin:217.68px 338.625px 0" data-v-3550869a=""></path>
      <path d="M161.35,433.22a12.89,12.89,0,1,1-12.79-13A12.9,12.9,0,0,1,161.35,433.22Z" id="el4kwqo4540l9" class="animable" style="fill:#e0e0e0;transform-origin:148.46px 433.11px 0" data-v-3550869a=""></path>
      <path d="M225.78,423.3c0,.14-12,.16-26.71,0s-26.7-.33-26.7-.48,12-.16,26.71,0S225.78,423.16,225.78,423.3Z" id="elvy5cfu5ow9" class="animable" style="fill:#263238;transform-origin:199.075px 423.058px 0" data-v-3550869a=""></path>
      <path d="M269.36,435.53c0,.14-21.8.08-48.68-.14s-48.69-.52-48.69-.66,21.8-.08,48.69.14S269.36,435.38,269.36,435.53Z" id="elv7lvz927vz" class="animable" style="fill:#e0e0e0;transform-origin:220.675px 435.13px 0" data-v-3550869a=""></path>
      <path d="M269.28,445.13c0,.15-21.8.09-48.68-.13s-48.69-.52-48.69-.66,21.8-.09,48.69.13S269.29,445,269.28,445.13Z" id="el1m4zsvysbu4i" class="animable" style="fill:#e0e0e0;transform-origin:220.595px 444.737px 0" data-v-3550869a=""></path>
      <path d="M298,421.45c0,.14-4.71.22-10.52.17s-10.53-.2-10.53-.34,4.72-.22,10.53-.18S298,421.31,298,421.45Z" id="el97j7iwg4kce" class="animable" style="fill:#263238;transform-origin:287.475px 421.362px 0" data-v-3550869a=""></path>
      <path d="M240,422.72a2.42,2.42,0,1,1-2.4-2.44A2.42,2.42,0,0,1,240,422.72Z" id="el3vjw1hbs4mv" class="animable" style="fill:#29669e;transform-origin:237.58px 422.7px 0" data-v-3550869a=""></path>
      <g id="elb8nxge8uiv" data-v-3550869a="">
         <rect x="125.68" y="205.71" width="185.45" height="66.62" id="elx5knu6medv" class="animable" style="fill:#f5f5f5;transform-origin:218.405px 239.02px 0;transform:rotate(.47deg)" data-v-3550869a=""></rect>
      </g>
      <g id="elxstosmwqvjc" data-v-3550869a="">
         <circle cx="150.42" cy="238.8" r="12.89" id="elb71fgw2nnfw" class="animable" style="fill:#455a64;transform-origin:150.42px 238.8px 0;transform:rotate(-45deg)" data-v-3550869a=""></circle>
      </g>
      <path d="M227.74,229c0,.15-12,.17-26.7.05s-26.71-.34-26.71-.48,12-.17,26.71,0S227.74,228.84,227.74,229Z" id="elwnk4w61rvj" class="animable" style="fill:#263238;transform-origin:201.035px 228.791px 0" data-v-3550869a=""></path>
      <path d="M271.33,241.21c0,.15-21.8.08-48.69-.14s-48.69-.51-48.69-.66,21.8-.08,48.69.14S271.33,241.07,271.33,241.21Z" id="elisl2p4y3i9s" class="animable" style="fill:#e0e0e0;transform-origin:222.64px 240.81px 0" data-v-3550869a=""></path>
      <path d="M271.25,250.82c0,.14-21.8.08-48.69-.14s-48.69-.51-48.69-.66,21.8-.08,48.7.14S271.25,250.68,271.25,250.82Z" id="elw9j6q8t4efl" class="animable" style="fill:#e0e0e0;transform-origin:222.56px 250.418px 0" data-v-3550869a=""></path>
      <path d="M300,227.14c0,.14-4.72.22-10.53.17a104.52,104.52,0,0,1-10.52-.35c0-.14,4.71-.22,10.53-.17A104.52,104.52,0,0,1,300,227.14Z" id="el2h8jlxchdx8" class="animable" style="fill:#263238;transform-origin:289.475px 227.05px 0" data-v-3550869a=""></path>
      <path d="M291.83,240.55s-.08-.11-.26-.27a1,1,0,0,0-.93-.19.88.88,0,0,0-.53.41c-.13.22-.26.52-.4.81l-.46,1a1.27,1.27,0,0,1-1,.8l-1.29.2-.68.1a.82.82,0,0,0-.49.28.83.83,0,0,0,0,1.09l1.14,1.12.3.29a1.33,1.33,0,0,1,.29.4,1.47,1.47,0,0,1,.07,1q-.15.85-.3,1.74a.79.79,0,0,0,.74,1c.23,0,.44-.12.74-.27l.85-.43a4.41,4.41,0,0,1,.92-.42,1.39,1.39,0,0,1,1.06.22l1.6.86a.81.81,0,0,0,1.11-.43,1.23,1.23,0,0,0,0-.71c0-.28-.08-.55-.13-.82l-.12-.81a1.29,1.29,0,0,1,.17-.92,4.18,4.18,0,0,1,.57-.6l.55-.51.52-.49a.91.91,0,0,0,.28-.48.87.87,0,0,0-.42-.91,5.75,5.75,0,0,0-1.1-.24l-1-.18a1.23,1.23,0,0,1-.87-.48,5.79,5.79,0,0,1-.35-.72,7.34,7.34,0,0,1-.53-1.34,8.31,8.31,0,0,1,.72,1.25,6.06,6.06,0,0,0,.36.66,1,1,0,0,0,.72.34l1,.14a4.81,4.81,0,0,1,1.22.25,1.25,1.25,0,0,1,.26,2l-.52.5-.53.53a3.28,3.28,0,0,0-.49.51.88.88,0,0,0-.1.6c.05.27.09.54.14.81s.09.54.14.82a1.69,1.69,0,0,1,0,1,1.3,1.3,0,0,1-1.8.71l-1.61-.86a.91.91,0,0,0-.72-.17,5.8,5.8,0,0,0-.79.37l-.84.43-.43.22a1.24,1.24,0,0,1-.57.11,1.32,1.32,0,0,1-1.23-1.57c.11-.59.22-1.17.32-1.73a1,1,0,0,0,0-.69,2,2,0,0,0-.49-.56L285.45,245a1.29,1.29,0,0,1,0-1.68,1.26,1.26,0,0,1,.75-.4l.69-.09,1.3-.16a.94.94,0,0,0,.77-.59l.49-.94c.16-.29.29-.55.45-.82a1.14,1.14,0,0,1,.69-.47,1.08,1.08,0,0,1,1.05.32C291.81,240.4,291.84,240.54,291.83,240.55Z" id="elmuble9eqoq" class="animable" style="fill:#263238;transform-origin:290.843px 245.363px 0" data-v-3550869a=""></path>
      <path d="M242,228.41a2.42,2.42,0,1,1-2.4-2.44A2.43,2.43,0,0,1,242,228.41Z" id="elh7wbdqc32ih" class="animable" style="fill:#29669e;transform-origin:239.58px 228.39px 0" data-v-3550869a=""></path>
      <g id="elzutedr86e69" data-v-3550869a="">
         <rect x="125.82" y="338.52" width="185.45" height="66.62" id="el7s9reg3w8uc" class="animable" style="fill:#f5f5f5;transform-origin:218.545px 371.83px 0;transform:rotate(.47deg)" data-v-3550869a=""></rect>
      </g>
      <g id="el93hrtcz7r4" data-v-3550869a="">
         <circle cx="150.56" cy="371.61" r="12.89" id="ellwddwlzpgmf" class="animable" style="fill:#455a64;transform-origin:150.56px 371.61px 0;transform:rotate(-45deg)" data-v-3550869a=""></circle>
      </g>
      <path d="M227.88,361.79c0,.14-12,.16-26.7,0s-26.71-.33-26.71-.48,12-.16,26.71,0S227.88,361.65,227.88,361.79Z" id="elz1tstawy1wq" class="animable" style="fill:#263238;transform-origin:201.175px 361.548px 0" data-v-3550869a=""></path>
      <path d="M271.47,374c0,.14-21.8.08-48.69-.14s-48.69-.52-48.69-.66,21.8-.08,48.69.14S271.47,373.87,271.47,374Z" id="el8kkme166luh" class="animable" style="fill:#e0e0e0;transform-origin:222.78px 373.6px 0" data-v-3550869a=""></path>
      <path d="M271.39,383.63c0,.14-21.8.08-48.69-.14S174,383,174,382.83s21.8-.08,48.7.14S271.39,383.48,271.39,383.63Z" id="elyaxliygosy" class="animable" style="fill:#e0e0e0;transform-origin:222.695px 383.223px 0" data-v-3550869a=""></path>
      <path d="M300.13,359.94c0,.15-4.72.22-10.53.18s-10.52-.21-10.52-.35,4.71-.22,10.53-.17S300.13,359.8,300.13,359.94Z" id="el0zfnfql9y8d" class="animable" style="fill:#263238;transform-origin:289.605px 359.858px 0" data-v-3550869a=""></path>
      <path d="M292,373.35s-.08-.11-.26-.26a1,1,0,0,0-.93-.2.92.92,0,0,0-.53.41c-.13.23-.26.53-.4.82s-.3.62-.46.95a1.26,1.26,0,0,1-1,.81l-1.29.19-.68.11a.82.82,0,0,0-.48,1.37l1.14,1.11.3.29a1.26,1.26,0,0,1,.29.41,1.4,1.4,0,0,1,.07,1q-.15.86-.3,1.74a.78.78,0,0,0,.74.95,1.41,1.41,0,0,0,.74-.26l.85-.44a5,5,0,0,1,.92-.42,1.43,1.43,0,0,1,1.06.23l1.6.86a.81.81,0,0,0,1.11-.43,1.23,1.23,0,0,0,0-.71c0-.28-.08-.56-.13-.83l-.12-.8a1.28,1.28,0,0,1,.17-.92,4.18,4.18,0,0,1,.57-.6l.55-.51.52-.5a.85.85,0,0,0,.28-.48.86.86,0,0,0-.42-.9,5.08,5.08,0,0,0-1.1-.24l-1-.18a1.24,1.24,0,0,1-.87-.49,5.73,5.73,0,0,1-.35-.71,6.94,6.94,0,0,1-.53-1.35,8.88,8.88,0,0,1,.72,1.26,5.93,5.93,0,0,0,.36.65,1,1,0,0,0,.72.35l1,.14A5.23,5.23,0,0,1,296,376a1.24,1.24,0,0,1,.64,1.3,1.27,1.27,0,0,1-.38.72l-.52.5-.53.52a3.81,3.81,0,0,0-.49.52.87.87,0,0,0-.1.6c.05.27.09.53.14.8s.09.55.14.83a1.77,1.77,0,0,1,0,1,1.32,1.32,0,0,1-1.81.7c-.53-.28-1.07-.56-1.61-.86a1,1,0,0,0-.72-.17,6,6,0,0,0-.79.38l-.84.43-.43.22a1.37,1.37,0,0,1-.57.1,1.32,1.32,0,0,1-1.23-1.56c.11-.59.22-1.17.32-1.74a1,1,0,0,0,0-.69,2.35,2.35,0,0,0-.49-.56l-1.14-1.15a1.29,1.29,0,0,1,0-1.68,1.33,1.33,0,0,1,.75-.41l.69-.09,1.3-.16a.91.91,0,0,0,.77-.58l.49-.94c.16-.3.29-.56.45-.82a1.12,1.12,0,0,1,.69-.48,1.1,1.1,0,0,1,1,.32C292,373.21,292,373.35,292,373.35Z" id="el089pba908jru" class="animable" style="fill:#263238;transform-origin:290.968px 378.168px 0" data-v-3550869a=""></path>
      <path d="M242.14,361.21a2.42,2.42,0,1,1-2.4-2.44A2.42,2.42,0,0,1,242.14,361.21Z" id="elr2mk3pcwf5" class="animable" style="fill:#29669e;transform-origin:239.72px 361.19px 0" data-v-3550869a=""></path>
      <g id="el3vpy3d6wqqr" data-v-3550869a="">
         <rect x="208.34" y="115.07" width="20.04" height="16.18" rx="2.25" id="elzdo3oz71etg" class="animable" style="fill:#29669e;transform-origin:218.36px 123.16px 0;transform:rotate(.47deg)" data-v-3550869a=""></rect>
      </g>
      <path d="M227.35,115.76a3.82,3.82,0,0,1-.62.84c-.42.52-1,1.26-1.83,2.17l-2.76,3.17-1.65,1.86a13.28,13.28,0,0,1-.91,1,2,2,0,0,1-1.45.45,2,2,0,0,1-1.33-.71l-.89-1-1.67-1.84-2.8-3.13c-.8-.9-1.43-1.63-1.86-2.15a4,4,0,0,1-.63-.83s.3.22.78.7,1.15,1.16,2,2l2.88,3.06,1.7,1.82.89,1a1.46,1.46,0,0,0,2.07.21c.27-.24.58-.63.86-.93l1.67-1.84,2.85-3.1c.81-.87,1.48-1.58,2-2A4.11,4.11,0,0,1,227.35,115.76Z" id="elskxoyu6m0c" class="animable" style="fill:#fff;transform-origin:218.15px 120.424px 0" data-v-3550869a=""></path>
      <path d="M215.31,123.09a29.55,29.55,0,0,1-3.21,3.63,18.53,18.53,0,0,1-3.6,3.27,29.34,29.34,0,0,1,3.22-3.63A18.66,18.66,0,0,1,215.31,123.09Z" id="el8bd31zhk2n3" class="animable" style="fill:#fff;transform-origin:211.905px 126.54px 0" data-v-3550869a=""></path>
      <path d="M228.32,130.37a25.13,25.13,0,0,1-3.71-3.65,27,27,0,0,1-3.34-4,25.46,25.46,0,0,1,3.72,3.65A26.54,26.54,0,0,1,228.32,130.37Z" id="el7iw4d76fh0w" class="animable" style="fill:#fff;transform-origin:224.795px 126.545px 0" data-v-3550869a=""></path>
      <path d="M153.77,121.64c0,.09-3.42.16-7.64.16s-7.64-.07-7.64-.16,3.42-.16,7.64-.16S153.77,121.55,153.77,121.64Z" id="el2lg9ow5yo72" class="animable" style="fill:#263238;transform-origin:146.13px 121.64px 0" data-v-3550869a=""></path>
      <path d="M153.77,125.55c0,.09-3.42.16-7.64.16s-7.64-.07-7.64-.16,3.42-.16,7.64-.16S153.77,125.46,153.77,125.55Z" id="elu88k3ocwdqo" class="animable" style="fill:#263238;transform-origin:146.13px 125.55px 0" data-v-3550869a=""></path>
      <path d="M153.77,129.46c0,.09-3.42.17-7.64.17s-7.64-.08-7.64-.16,3.42-.17,7.64-.17S153.77,129.38,153.77,129.46Z" id="el4hphw9z9m52" class="animable" style="fill:#263238;transform-origin:146.13px 129.465px 0" data-v-3550869a=""></path>
      <path d="M297.18,124.13c-.05,0,0-.38-.22-1a4.13,4.13,0,0,0-1.52-2.21,4,4,0,1,0-.05,6.41,4.26,4.26,0,0,0,1.56-2.19c.18-.63.18-1,.23-1a.94.94,0,0,1,0,.27,3.17,3.17,0,0,1-.08.78,4.22,4.22,0,0,1-1.54,2.41,4.4,4.4,0,1,1,.06-7,4.18,4.18,0,0,1,1.49,2.44,3,3,0,0,1,.07.78A.68.68,0,0,1,297.18,124.13Z" id="el22h4201kv2y" class="animable" style="fill:#263238;transform-origin:292.861px 124.077px 0" data-v-3550869a=""></path>
      <path d="M299.43,131.39a8.25,8.25,0,0,1-2-1.89,8.33,8.33,0,0,1-1.69-2.21,8.25,8.25,0,0,1,2,1.89A8.16,8.16,0,0,1,299.43,131.39Z" id="elgcbvfud0gva" class="animable" style="fill:#263238;transform-origin:297.585px 129.34px 0" data-v-3550869a=""></path>
   </g>
</svg>